<svg width="32" height="32" viewBox="0 0 32 32" fill="none" xmlns="http://www.w3.org/2000/svg">
<path fill-rule="evenodd" clip-rule="evenodd" d="M14.509 4.62V3.5C14.509 2.67157 15.1806 2 16.009 2C16.8374 2 17.509 2.67157 17.509 3.5V4.62012C21.8147 5.31659 25.1524 8.96189 25.3346 13.4554L25.4328 15.8782C25.5069 17.7056 26.1685 19.4603 27.3191 20.8818L27.3557 20.9271C28.6789 22.5616 27.5156 25 25.4126 25H21.9258C21.4497 27.8377 18.9818 30 16.0088 30C13.0358 30 10.5678 27.8377 10.0917 25H6.60469C4.50173 25 3.3384 22.5616 4.66154 20.9271L4.69814 20.8818C5.84882 19.4603 6.51034 17.7056 6.58444 15.8782L6.68269 13.4554C6.86492 8.96163 10.203 5.31618 14.509 4.62ZM16.0088 27C14.7025 27 13.5913 26.1652 13.1795 25H18.8381C18.4262 26.1652 17.315 27 16.0088 27ZM16.0086 7.5C12.6105 7.5 9.81791 10.1816 9.68023 13.577L9.58198 15.9998C9.49471 18.1518 8.80528 20.2294 7.60136 22H24.4159C23.212 20.2294 22.5226 18.1518 22.4353 15.9998L22.3371 13.577C22.1994 10.1816 19.4068 7.5 16.0086 7.5Z" fill="black"/>
</svg>
