<svg width="32" height="32" viewBox="0 0 32 32" fill="none" xmlns="http://www.w3.org/2000/svg">
<path fill-rule="evenodd" clip-rule="evenodd" d="M16.0035 3C12.1375 3 9.00354 6.13401 9.00354 10C9.00354 11.9569 9.80656 13.7263 11.1011 14.9966C9.49873 15.6741 8.02927 16.6825 6.78881 17.9769C4.61366 20.2466 3.30043 23.2293 3.04819 26.3813C2.9279 27.8844 4.15771 29 5.50352 29L26.5035 29C27.8493 29 29.0791 27.8844 28.9588 26.3813C28.7066 23.2293 27.3934 20.2466 25.2182 17.9769C23.9778 16.6825 22.5083 15.6741 20.906 14.9966C22.2005 13.7263 23.0035 11.9569 23.0035 10C23.0035 6.13401 19.8695 3 16.0035 3ZM12.0035 10C12.0035 7.79086 13.7944 6 16.0035 6C18.2127 6 20.0035 7.79086 20.0035 10C20.0035 12.2091 18.2127 14 16.0035 14C13.7944 14 12.0035 12.2091 12.0035 10ZM8.95477 20.0526C10.8355 18.09 13.3724 17 16.0035 17C18.6346 17 21.1715 18.09 23.0523 20.0526C24.5956 21.663 25.592 23.7528 25.901 26L6.10606 26C6.41499 23.7528 7.41144 21.663 8.95477 20.0526Z" fill="#191919"/>
</svg>
