<svg width="24" height="24" viewBox="0 0 24 24" fill="none" xmlns="http://www.w3.org/2000/svg">
<path d="M10.125 6C9.50368 6 9 6.50368 9 7.125C9 7.74632 9.50368 8.25 10.125 8.25L16.875 8.25C17.4963 8.25 18 7.74632 18 7.125C18 6.50368 17.4963 6 16.875 6L10.125 6Z" fill="black"/>
<path d="M6 12C6 11.3787 6.50368 10.875 7.125 10.875H16.875C17.4963 10.875 18 11.3787 18 12C18 12.6213 17.4963 13.125 16.875 13.125H7.125C6.50368 13.125 6 12.6213 6 12Z" fill="black"/>
<path d="M7.125 15.75C6.50368 15.75 6 16.2537 6 16.875C6 17.4963 6.50368 18 7.125 18H13.875C14.4963 18 15 17.4963 15 16.875C15 16.2537 14.4963 15.75 13.875 15.75H7.125Z" fill="black"/>
<path fill-rule="evenodd" clip-rule="evenodd" d="M4.125 2.25C3.08947 2.25 2.25 3.08947 2.25 4.125V19.875C2.25 20.9105 3.08947 21.75 4.125 21.75H19.875C20.9105 21.75 21.75 20.9105 21.75 19.875V4.125C21.75 3.08947 20.9105 2.25 19.875 2.25H4.125ZM4.5 19.5V4.5H19.5V19.5H4.5Z" fill="black"/>
</svg>
