<svg width="32" height="32" viewBox="0 0 32 32" fill="none" xmlns="http://www.w3.org/2000/svg">
<path d="M8.125 11.8354C6.94153 11.8354 5.98214 12.8803 5.98214 14.1692C5.98214 15.4581 6.94153 16.503 8.125 16.503C9.30847 16.503 10.2679 15.4581 10.2679 14.1692C10.2679 12.8803 9.30847 11.8354 8.125 11.8354Z" fill="black"/>
<path d="M13.4821 14.1692C13.4821 12.8803 14.4415 11.8354 15.625 11.8354C16.8085 11.8354 17.7679 12.8803 17.7679 14.1692C17.7679 15.4581 16.8085 16.503 15.625 16.503C14.4415 16.503 13.4821 15.4581 13.4821 14.1692Z" fill="black"/>
<path d="M23.125 11.8354C21.9415 11.8354 20.9821 12.8803 20.9821 14.1692C20.9821 15.4581 21.9415 16.503 23.125 16.503C24.3085 16.503 25.2679 15.4581 25.2679 14.1692C25.2679 12.8803 24.3085 11.8354 23.125 11.8354Z" fill="black"/>
<path fill-rule="evenodd" clip-rule="evenodd" d="M3.30357 2.5C1.82424 2.5 0.625 3.80612 0.625 5.4173V22.9211C0.625 24.5323 1.82424 25.8384 3.30357 25.8384H10.6176L13.623 29.5208C14.6885 30.8264 16.5615 30.8264 17.627 29.5208L20.6324 25.8384H27.9464C29.4258 25.8384 30.625 24.5323 30.625 22.9211V5.4173C30.625 3.80612 29.4258 2.5 27.9464 2.5H3.30357ZM3.83929 22.3376V6.00076H27.4107V22.3376H20.3919C19.6268 22.3376 18.8982 22.694 18.3899 23.3168L15.625 26.7045L12.8601 23.3168C12.3518 22.694 11.6232 22.3376 10.8581 22.3376H3.83929Z" fill="black"/>
</svg>
