<svg width="16" height="17" viewBox="0 0 16 17" fill="none" xmlns="http://www.w3.org/2000/svg">
<path d="M8.66379 1.55779C8.53414 1.31124 8.27853 1.15686 7.99997 1.15686C7.72142 1.15686 7.46581 1.31124 7.33616 1.55779L5.44923 5.14607L1.45348 5.8318C1.17894 5.87892 0.953127 6.07431 0.867048 6.33923C0.78097 6.60416 0.848808 6.89496 1.04322 7.09445L3.87279 9.99786L3.29021 14.0099C3.25018 14.2856 3.36623 14.5608 3.59158 14.7245C3.81694 14.8882 4.11448 14.9136 4.36428 14.7903L7.99997 12.9964L11.6357 14.7903C11.8855 14.9136 12.183 14.8882 12.4084 14.7245C12.6337 14.5608 12.7498 14.2856 12.7097 14.01L12.1272 9.99786L14.9567 7.09445C15.1511 6.89496 15.219 6.60416 15.1329 6.33923C15.0468 6.07431 14.821 5.87892 14.5465 5.8318L10.5507 5.14607L8.66379 1.55779Z" fill="#EFD965" fill-opacity="0.85"/>
</svg>
