<svg width="17" height="17" viewBox="0 0 17 17" fill="none" xmlns="http://www.w3.org/2000/svg">
<g clip-path="url(#clip0_80_779)">
<path d="M9.16379 1.05779C9.03414 0.811243 8.77853 0.65686 8.49997 0.65686C8.22142 0.65686 7.96581 0.811243 7.83616 1.05779L5.94923 4.64607L1.95348 5.3318C1.67894 5.37892 1.45313 5.57431 1.36705 5.83923C1.28097 6.10416 1.34881 6.39496 1.54322 6.59445L4.37279 9.49786L3.79021 13.5099C3.75018 13.7856 3.86623 14.0608 4.09158 14.2245C4.31694 14.3882 4.61448 14.4136 4.86428 14.2903L8.49997 12.4964L12.1357 14.2903C12.3855 14.4136 12.683 14.3882 12.9084 14.2245C13.1337 14.0608 13.2498 13.7856 13.2097 13.51L12.6272 9.49786L15.4567 6.59445C15.6511 6.39496 15.719 6.10416 15.6329 5.83923C15.5468 5.57431 15.321 5.37892 15.0465 5.3318L11.0507 4.64607L9.16379 1.05779Z" fill="#EFD965" fill-opacity="0.85"/>
</g>
<defs>
<clipPath id="clip0_80_779">
<rect width="16" height="16" fill="white" transform="translate(0.5 0.15686)"/>
</clipPath>
</defs>
</svg>
