<svg width="16" height="16" viewBox="0 0 16 16" fill="none" xmlns="http://www.w3.org/2000/svg">
<path fill-rule="evenodd" clip-rule="evenodd" d="M10.0855 11.3961C7.9298 13.0344 4.84147 12.8696 2.87349 10.9016C0.725602 8.75372 0.725602 5.27131 2.87349 3.12342C5.02137 0.975541 8.50378 0.975541 10.6517 3.12342C12.6197 5.09142 12.7845 8.17978 11.1461 10.3354L13.1265 12.3158C13.4194 12.6087 13.4194 13.0836 13.1265 13.3765C12.8336 13.6694 12.3587 13.6694 12.0658 13.3765L10.0855 11.3961ZM3.93415 9.84094C2.37205 8.27884 2.37205 5.74618 3.93415 4.18409C5.49624 2.62199 8.0289 2.62199 9.591 4.18408C11.1517 5.7448 11.1531 8.27437 9.59513 9.8368L9.59096 9.84094L9.58683 9.8451C8.0244 11.403 5.49485 11.4016 3.93415 9.84094Z" fill="black" fill-opacity="0.85"/>
</svg>
